<svg width="81" height="70" viewBox="0 0 81 70" fill="none" xmlns="http://www.w3.org/2000/svg">
    <g clip-path="url(#clip0_172_1809)">
        <g clip-path="url(#clip1_172_1809)">
            <path d="M29.5271 29.9904H24.2723V55.3281H29.5271V29.9904Z" fill="white" />
            <path
                d="M69.9461 41.065H64.3915L63.402 38.1588L57.5775 55.3058H52.0304L60.6284 29.9904H66.183L69.9461 41.065Z"
                fill="white" />
            <path
                d="M80.8679 37.3859L74.7811 55.3058H69.2265L65.4634 44.2313H71.0106L72 47.1374L75.3208 37.3859H80.8679Z"
                fill="#8D5BD9" />
            <path
                d="M0 29.9904L8.59803 55.3058H14.1526L22.7507 29.9904H17.2035L11.3791 47.1374L5.54711 29.9904H0Z"
                fill="white" />
            <path
                d="M22.7507 0.460815H15.0522L5.25477 9.52856V0.460815H0V25.7985H5.25477V16.701L15.0522 25.7687H22.7507L9.07778 13.1185L22.7507 0.460815Z"
                fill="white" />
            <path
                d="M64.7513 25.7687L56.1533 0.460815H50.5987L41.9932 25.7687H47.5403L53.3722 8.62922L59.2042 25.7687H64.7513Z"
                fill="white" />
            <path
                d="M20.9891 17.9645H26.0639C26.4237 21.0119 28.1703 22.216 31.8209 22.216C34.4596 22.216 36.7834 21.2943 36.7834 18.9605C36.7834 16.478 34.3546 15.9875 30.4566 15.0956C25.914 14.0699 21.7387 12.8658 21.7387 7.58123C21.7387 2.58654 25.8465 0 31.5286 0C37.2106 0 40.9962 2.80208 41.3935 7.90083H36.4235C36.1387 5.35145 34.1372 4.07305 31.4836 4.07305C28.6951 4.07305 26.8735 5.2474 26.8735 7.04608C26.8735 9.09747 28.6576 9.69951 32.4506 10.5171C37.7054 11.6543 41.9782 12.8955 41.9782 18.3585C41.9782 23.4944 37.7953 26.3633 32.0383 26.3633C25.1269 26.3633 21.199 23.316 20.9891 17.9645Z"
                fill="white" />
            <path
                d="M31.0563 47.5016H36.1312C36.491 50.5489 38.2376 51.753 41.8882 51.753C44.5343 51.753 46.8506 50.8314 46.8506 48.4901C46.8506 46.0076 44.4219 45.5171 40.5314 44.6252C35.9813 43.5995 31.7685 42.3657 31.7685 37.1183C31.7685 32.1161 35.8838 29.5296 41.5659 29.5296C47.2479 29.5296 51.0334 32.3317 51.4307 37.4304H46.4758C46.191 34.8811 44.227 33.6101 41.5434 33.6101C38.7548 33.6101 36.9333 34.777 36.9333 36.5831C36.9333 38.6419 38.7173 39.244 42.5104 40.0541C47.7576 41.1913 52.0529 42.4326 52.0529 47.8881C52.0529 53.024 47.8701 55.8929 42.1131 55.8929C35.1642 55.8929 31.2362 52.8456 31.0563 47.5016Z"
                fill="white" />
            <path
                d="M10.2772 61.4005H9.58004C9.52208 61.4005 9.4751 61.4471 9.4751 61.5046V62.2478C9.4751 62.3053 9.52208 62.3519 9.58004 62.3519H10.2772C10.3351 62.3519 10.3821 62.3053 10.3821 62.2478V61.5046C10.3821 61.4471 10.3351 61.4005 10.2772 61.4005Z"
                fill="white" />
            <path
                d="M11.5365 61.4005H10.8394C10.7814 61.4005 10.7344 61.4471 10.7344 61.5046V62.2478C10.7344 62.3053 10.7814 62.3519 10.8394 62.3519H11.5365C11.5945 62.3519 11.6415 62.3053 11.6415 62.2478V61.5046C11.6415 61.4471 11.5945 61.4005 11.5365 61.4005Z"
                fill="white" />
            <path
                d="M14.5125 68.9149H13.8153C13.7574 68.9149 13.7104 68.9614 13.7104 69.0189V69.7622C13.7104 69.8196 13.7574 69.8662 13.8153 69.8662H14.5125C14.5704 69.8662 14.6174 69.8196 14.6174 69.7622V69.0189C14.6174 68.9614 14.5704 68.9149 14.5125 68.9149Z"
                fill="white" />
            <path
                d="M15.7718 68.9149H15.0747C15.0167 68.9149 14.9697 68.9614 14.9697 69.0189V69.7622C14.9697 69.8196 15.0167 69.8662 15.0747 69.8662H15.7718C15.8298 69.8662 15.8768 69.8196 15.8768 69.7622V69.0189C15.8768 68.9614 15.8298 68.9149 15.7718 68.9149Z"
                fill="white" />
            <path
                d="M15.4345 66.6702V63.8755C15.4345 63.8086 15.4345 63.7789 15.3295 63.7789H14.6699C14.6024 63.7789 14.5649 63.7789 14.5649 63.8755V66.6182C14.5649 67.0269 14.415 67.1607 14.0702 67.1607H12.9083C12.571 67.1607 12.4135 67.0269 12.4135 66.6182V63.1769C12.4135 63.1025 12.4135 63.0728 12.3086 63.0728H11.6489C11.574 63.0728 11.544 63.0728 11.544 63.1769V63.6154H10.532C10.2605 63.5943 9.98765 63.6336 9.73339 63.7304C9.47913 63.8272 9.24988 63.9791 9.06239 64.1749C8.87489 64.3708 8.73388 64.6057 8.64966 64.8626C8.56543 65.1194 8.54011 65.3916 8.57555 65.6594C8.55536 65.912 8.59159 66.166 8.68166 66.4031C8.77173 66.6403 8.91342 66.8549 9.09665 67.0316C9.27987 67.2083 9.50013 67.3428 9.74175 67.4255C9.98337 67.5082 10.2404 67.5371 10.4945 67.5101C10.9035 67.5331 11.3057 67.4001 11.619 67.1384C11.7389 67.7256 12.1137 67.9635 12.7809 67.9635H14.2801C15.0972 67.9635 15.4345 67.5695 15.4345 66.6702ZM11.544 65.4066C11.544 66.2242 11.2591 66.7073 10.4721 66.7073C10.3284 66.7199 10.1838 66.7001 10.049 66.6496C9.9141 66.5991 9.79245 66.5191 9.69306 66.4155C9.59367 66.312 9.51909 66.1875 9.47486 66.0515C9.43063 65.9154 9.4179 65.7712 9.4376 65.6296C9.4376 64.6857 9.87237 64.381 10.532 64.381H11.544V65.4066Z"
                fill="white" />
            <path
                d="M18.9426 63.5931H17.4434C17.3685 63.5931 17.3385 63.5931 17.3385 63.6972V64.2843C17.3385 64.3587 17.3385 64.3884 17.4434 64.3884H18.6353C19.4224 64.3884 19.8122 64.7377 19.8122 65.4215V66.2391C19.8122 66.9378 19.6998 67.1608 18.9277 67.1608H16.9412C16.8662 67.1608 16.8362 67.1608 16.8362 67.2648V67.8594C16.8362 67.9337 16.8362 67.9635 16.9412 67.9635H19.235C20.262 67.9635 20.7342 67.5695 20.7342 66.2094V65.4067C20.7635 65.1648 20.7376 64.9194 20.6584 64.6888C20.5793 64.4581 20.449 64.248 20.277 64.0739C20.1051 63.8999 19.8959 63.7663 19.665 63.6831C19.434 63.5999 19.1872 63.5691 18.9426 63.5931Z"
                fill="white" />
            <path
                d="M44.7817 60.9991H44.1221C44.1077 60.9965 44.0929 60.9973 44.0789 61.0016C44.065 61.0059 44.0523 61.0135 44.0419 61.0237C44.0316 61.034 44.0239 61.0466 44.0196 61.0604C44.0153 61.0743 44.0144 61.0889 44.0171 61.1032V66.6182C44.0171 67.027 43.8597 67.1607 43.5224 67.1607H42.7278C42.1506 67.1607 41.7983 66.9303 41.7983 66.4695V63.8755C41.7983 63.8087 41.7983 63.7789 41.7008 63.7789H41.0337C40.9662 63.7789 40.9362 63.7789 40.9362 63.8755V66.6182C40.9362 67.027 40.7788 67.1607 40.4415 67.1607H40.2016C39.6544 67.1607 39.2721 66.9452 39.2721 66.5067V64.76C39.2721 64.6857 39.2721 64.656 39.1671 64.656H38.5075C38.4931 64.6533 38.4783 64.6542 38.4643 64.6584C38.4504 64.6627 38.4377 64.6703 38.4273 64.6806C38.417 64.6908 38.4093 64.7034 38.405 64.7173C38.4007 64.7311 38.3998 64.7458 38.4025 64.76V66.6182C38.4025 67.027 38.2526 67.1607 37.9078 67.1607H37.6529C37.1057 67.1607 36.7459 66.9303 36.7459 66.4695V64.76C36.7459 64.6857 36.7459 64.656 36.6409 64.656H35.9813C35.9063 64.656 35.8763 64.656 35.8763 64.76V66.6182C35.8763 67.027 35.7189 67.1607 35.3816 67.1607H30.6441C30.5425 67.18 30.4383 67.18 30.3367 67.1607C30.6789 66.956 30.9656 66.6717 31.1719 66.3324C31.3783 65.9931 31.4982 65.609 31.5211 65.2134C31.5211 64.2249 30.854 63.6154 29.3622 63.6154C28.6489 63.6133 27.947 63.7924 27.3233 64.1357C27.2876 64.1568 27.2587 64.1876 27.2401 64.2245C27.2215 64.2614 27.2139 64.3028 27.2183 64.3438V64.9533C27.2183 65.0276 27.2183 65.0648 27.3608 65.1614C27.722 65.3586 28.0353 65.6317 28.2788 65.9617C28.5222 66.2917 28.6899 66.6705 28.77 67.0716C28.4847 67.1506 28.1892 67.1882 27.893 67.183H25.8391V65.8452C25.8391 64.2769 25.1269 63.6154 23.8826 63.6154C22.8106 63.6154 21.8961 64.3587 21.8961 65.9046C21.8961 67.4506 22.6457 67.9858 23.8676 67.9858H24.9695V68.2459C24.9695 68.9892 24.5572 69.2196 24.01 69.2196H22.7732C22.6982 69.2196 22.6682 69.2196 22.6682 69.3236V69.8662C22.6655 69.8804 22.6664 69.8951 22.6707 69.909C22.675 69.9228 22.6827 69.9354 22.693 69.9457C22.7034 69.9559 22.7161 69.9635 22.73 69.9678C22.744 69.9721 22.7588 69.9729 22.7732 69.9703H24.0475C24.2915 70.0009 24.5393 69.9756 24.7718 69.8962C25.0043 69.8168 25.2153 69.6855 25.3884 69.5123C25.5616 69.3392 25.6923 69.1289 25.7704 68.8977C25.8486 68.6665 25.872 68.4206 25.8391 68.179V67.9337H27.9605C28.4451 67.9485 28.9261 67.8464 29.3622 67.6364C29.7699 67.867 30.2352 67.9779 30.704 67.956H35.569C35.7811 67.983 35.9966 67.9465 36.1876 67.8511C36.3786 67.7558 36.5365 67.6059 36.6409 67.4209C36.7294 67.5943 36.8679 67.7377 37.0387 67.833C37.2095 67.9283 37.405 67.9711 37.6004 67.956H38.0952C38.3074 67.9841 38.5232 67.948 38.7145 67.8525C38.9057 67.7571 39.0635 67.6066 39.1671 67.4209C39.2564 67.5936 39.395 67.7365 39.5656 67.8317C39.7363 67.9268 39.9314 67.9701 40.1266 67.956H40.6214C40.8336 67.9841 41.0494 67.948 41.2407 67.8525C41.4319 67.7571 41.5896 67.6066 41.6933 67.4209C41.7826 67.5936 41.9212 67.7365 42.0918 67.8317C42.2624 67.9268 42.4576 67.9701 42.6528 67.956H43.6723C44.5418 67.956 44.8867 67.5621 44.8867 66.6628V61.1032C44.8878 61.0892 44.8858 61.0752 44.881 61.0621C44.8761 61.0489 44.8684 61.037 44.8584 61.0271C44.8484 61.0172 44.8364 61.0096 44.8232 61.0048C44.8099 60.9999 44.7958 60.998 44.7817 60.9991ZM24.9695 67.1607H23.9276C23.178 67.1607 22.7582 66.856 22.7582 65.8823C22.7582 64.9087 23.1854 64.3958 23.8826 64.3958C24.5797 64.3958 24.9695 64.931 24.9695 65.8303V67.1607ZM29.5796 66.752C29.4887 66.3191 29.3087 65.9094 29.0507 65.5488C28.7927 65.1881 28.4624 64.8841 28.0804 64.656C28.4794 64.4726 28.915 64.3812 29.3547 64.3884C30.0594 64.3884 30.6066 64.5742 30.6066 65.2506C30.5663 65.5632 30.4524 65.8621 30.274 66.1229C30.0956 66.3837 29.8577 66.5992 29.5796 66.752Z"
                fill="white" />
            <path
                d="M47.1355 60.9991H46.4758C46.4178 60.9991 46.3708 61.0457 46.3708 61.1032V67.852C46.3708 67.9094 46.4178 67.956 46.4758 67.956H47.1355C47.1934 67.956 47.2404 67.9094 47.2404 67.852V61.1032C47.2404 61.0457 47.1934 60.9991 47.1355 60.9991Z"
                fill="white" />
            <path
                d="M54.2418 61.8093H53.5446C53.4867 61.8093 53.4397 61.8559 53.4397 61.9134V62.6566C53.4397 62.7141 53.4867 62.7607 53.5446 62.7607H54.2418C54.2997 62.7607 54.3467 62.7141 54.3467 62.6566V61.9134C54.3467 61.8559 54.2997 61.8093 54.2418 61.8093Z"
                fill="white" />
            <path
                d="M52.9824 61.8093H52.2853C52.2273 61.8093 52.1804 61.8559 52.1804 61.9134V62.6566C52.1804 62.7141 52.2273 62.7607 52.2853 62.7607H52.9824C53.0404 62.7607 53.0874 62.7141 53.0874 62.6566V61.9134C53.0874 61.8559 53.0404 61.8093 52.9824 61.8093Z"
                fill="white" />
            <path
                d="M53.2672 63.5931C52.0304 63.5931 51.2958 64.2546 51.2958 65.8229C51.2958 67.3912 52.0454 68.0527 53.2672 68.0527C54.4891 68.0527 55.2387 67.3986 55.2387 65.8229C55.2387 64.2472 54.5041 63.5931 53.2672 63.5931ZM53.2672 67.2351C52.5176 67.2351 52.1653 66.804 52.1653 65.8229C52.1653 64.8418 52.4802 64.3884 53.2672 64.3884C54.0543 64.3884 54.3692 64.9236 54.3692 65.8229C54.3692 66.7223 54.0468 67.2351 53.2672 67.2351Z"
                fill="white" />
            <path
                d="M61.498 68.9149H60.8009C60.7429 68.9149 60.6959 68.9614 60.6959 69.0189V69.7622C60.6959 69.8196 60.7429 69.8662 60.8009 69.8662H61.498C61.556 69.8662 61.603 69.8196 61.603 69.7622V69.0189C61.603 68.9614 61.556 68.9149 61.498 68.9149Z"
                fill="white" />
            <path
                d="M60.2386 68.9149H59.5415C59.4835 68.9149 59.4366 68.9614 59.4366 69.0189V69.7622C59.4366 69.8196 59.4835 69.8662 59.5415 69.8662H60.2386C60.2966 69.8662 60.3436 69.8196 60.3436 69.7622V69.0189C60.3436 68.9614 60.2966 68.9149 60.2386 68.9149Z"
                fill="white" />
            <path
                d="M66.2355 61.8093H65.5384C65.4804 61.8093 65.4334 61.8559 65.4334 61.9134V62.6566C65.4334 62.7141 65.4804 62.7607 65.5384 62.7607H66.2355C66.2935 62.7607 66.3405 62.7141 66.3405 62.6566V61.9134C66.3405 61.8559 66.2935 61.8093 66.2355 61.8093Z"
                fill="white" />
            <path
                d="M66.8727 60.6127H66.1756C66.1176 60.6127 66.0706 60.6593 66.0706 60.7167V61.46C66.0706 61.5175 66.1176 61.564 66.1756 61.564H66.8727C66.9307 61.564 66.9776 61.5175 66.9776 61.46V60.7167C66.9776 60.6593 66.9307 60.6127 66.8727 60.6127Z"
                fill="white" />
            <path
                d="M67.4949 61.8093H66.7978C66.7398 61.8093 66.6928 61.8559 66.6928 61.9134V62.6566C66.6928 62.7141 66.7398 62.7607 66.7978 62.7607H67.4949C67.5528 62.7607 67.5998 62.7141 67.5998 62.6566V61.9134C67.5998 61.8559 67.5528 61.8093 67.4949 61.8093Z"
                fill="white" />
            <path
                d="M69.3914 63.7789H68.7317C68.6643 63.7789 68.6268 63.7789 68.6268 63.8756V66.6182C68.6268 67.027 68.4769 67.1608 68.1321 67.1608H67.8772C67.33 67.1608 66.9702 66.9303 66.9702 66.4695V64.76C66.9702 64.6857 66.9702 64.656 66.8652 64.656H66.2056C66.1306 64.656 66.1006 64.656 66.1006 64.76V66.6182C66.1006 67.027 65.9507 67.1608 65.6059 67.1608H65.351C64.8038 67.1608 64.444 66.9303 64.444 66.4695V64.76C64.4467 64.7458 64.4458 64.7311 64.4415 64.7173C64.4372 64.7034 64.4295 64.6908 64.4192 64.6806C64.4088 64.6703 64.3961 64.6627 64.3822 64.6585C64.3682 64.6542 64.3534 64.6533 64.339 64.656H63.7169C63.6419 64.656 63.6119 64.656 63.6119 64.76V66.6182C63.6119 67.027 63.4545 67.1608 63.1172 67.1608H61.9928C61.4156 67.1608 61.0632 66.9303 61.0632 66.4695V63.8756C61.0632 63.8087 61.0632 63.7789 60.9658 63.7789H60.3061C60.2312 63.7789 60.2012 63.7789 60.2012 63.8756V66.6182C60.2012 67.027 60.0438 67.1608 59.7064 67.1608H58.8144C58.2372 67.1608 57.8849 66.9303 57.8849 66.4695V63.8756C57.8849 63.8087 57.8849 63.7789 57.7874 63.7789H57.1278C57.0528 63.7789 57.0228 63.7789 57.0228 63.8756V68.3351C57.0228 68.9223 56.7455 69.2047 56.1833 69.2047H55.9509C55.8759 69.2047 55.846 69.2047 55.846 69.3088V69.8662C55.8433 69.8805 55.8441 69.8951 55.8484 69.909C55.8528 69.9228 55.8604 69.9354 55.8708 69.9457C55.8811 69.9559 55.8938 69.9635 55.9078 69.9678C55.9217 69.9721 55.9365 69.9729 55.9509 69.9703H56.2208C56.4494 69.9967 56.681 69.9706 56.8978 69.894C57.1146 69.8173 57.3107 69.6922 57.4709 69.5284C57.6311 69.3645 57.7511 69.1663 57.8216 68.949C57.8921 68.7318 57.9112 68.5014 57.8774 68.2756V67.6364C57.9856 67.7453 58.1154 67.8305 58.2587 67.8868C58.402 67.9432 58.5555 67.9693 58.7095 67.9635H59.8489C60.0621 67.991 60.2787 67.9548 60.4711 67.8594C60.6634 67.7641 60.8226 67.614 60.9283 67.4283C61.016 67.6024 61.1543 67.7464 61.3253 67.8418C61.4963 67.9371 61.6923 67.9795 61.8878 67.9635H63.2221C63.4353 67.991 63.652 67.9548 63.8443 67.8594C64.0366 67.7641 64.1958 67.614 64.3016 67.4283C64.3893 67.6024 64.5275 67.7464 64.6986 67.8418C64.8696 67.9371 65.0655 67.9795 65.2611 67.9635H65.7558C65.968 67.9915 66.1838 67.9554 66.3751 67.86C66.5663 67.7645 66.7241 67.6141 66.8277 67.4283C66.9162 67.6017 67.0547 67.7451 67.2255 67.8404C67.3963 67.9357 67.5918 67.9785 67.7872 67.9635H68.282C69.1515 67.9635 69.4889 67.5695 69.4889 66.6702V63.8756C69.4963 63.8087 69.4664 63.7789 69.3914 63.7789Z"
                fill="white" />
            <path
                d="M72.4573 60.4194V60.1295C72.4573 60.0849 72.4573 60.0626 72.3973 60.0626H71.3329C71.2282 59.9888 71.1419 59.8921 71.0808 59.78C71.0198 59.6679 70.9854 59.5433 70.9806 59.416C70.974 59.3395 70.9841 59.2625 71.0101 59.1902C71.0362 59.1179 71.0777 59.052 71.1317 58.997C71.1858 58.942 71.2511 58.8992 71.3234 58.8715C71.3956 58.8437 71.4729 58.8317 71.5503 58.8363C71.6444 58.8383 71.737 58.8599 71.8222 58.8996C71.9074 58.9393 71.9833 58.9962 72.045 59.0667C72.045 59.0667 72.105 59.0667 72.1574 59.0667L72.3748 58.8883C72.3748 58.8883 72.3748 58.8363 72.3748 58.7842C72.2793 58.6621 72.1546 58.5655 72.0119 58.5032C71.8692 58.4409 71.7131 58.4149 71.5578 58.4275C71.4177 58.4164 71.277 58.4355 71.1451 58.4834C71.0132 58.5313 70.8933 58.6069 70.7936 58.705C70.694 58.8031 70.6169 58.9214 70.5676 59.0518C70.5184 59.1823 70.4981 59.3217 70.5083 59.4606C70.4996 59.6881 70.5653 59.9124 70.6957 60.0998H70.2984C70.2984 60.0998 70.2384 60.0998 70.2384 60.1667V60.4566C70.2384 60.5086 70.2384 60.5309 70.2984 60.5309H72.3973C72.3973 60.5309 72.4573 60.4714 72.4573 60.4194Z"
                fill="white" />
            <path
                d="M74.0764 61.8093H73.3793C73.3213 61.8093 73.2744 61.8559 73.2744 61.9134V62.6566C73.2744 62.7141 73.3213 62.7607 73.3793 62.7607H74.0764C74.1344 62.7607 74.1814 62.7141 74.1814 62.6566V61.9134C74.1814 61.8559 74.1344 61.8093 74.0764 61.8093Z"
                fill="white" />
            <path
                d="M75.3358 61.8093H74.6387C74.5807 61.8093 74.5337 61.8559 74.5337 61.9134V62.6566C74.5337 62.7141 74.5807 62.7607 74.6387 62.7607H75.3358C75.3938 62.7607 75.4408 62.7141 75.4408 62.6566V61.9134C75.4408 61.8559 75.3938 61.8093 75.3358 61.8093Z"
                fill="white" />
            <path
                d="M74.6761 63.7789H74.0165C73.9415 63.7789 73.9115 63.7789 73.9115 63.8755V66.6182C73.9115 67.027 73.7541 67.1607 73.4168 67.1607H72.2549C71.9101 67.1607 71.7527 67.027 71.7527 66.6182V61.1032C71.7527 61.0363 71.7526 60.9991 71.6552 60.9991H70.9955C70.9812 60.9965 70.9664 60.9973 70.9524 61.0016C70.9384 61.0059 70.9258 61.0135 70.9154 61.0237C70.9051 61.034 70.8974 61.0466 70.8931 61.0604C70.8888 61.0743 70.8879 61.0889 70.8906 61.1032V66.6702C70.8906 67.5695 71.2279 67.9635 72.0975 67.9635H73.5967C74.4587 67.9635 74.8036 67.5695 74.8036 66.6702V63.8755C74.7811 63.8087 74.7511 63.7789 74.6761 63.7789Z"
                fill="white" />
        </g>
    </g>
    <defs>
        <clipPath id="clip0_172_1809">
            <rect width="80.9804" height="70" fill="white" />
        </clipPath>
        <clipPath id="clip1_172_1809">
            <rect width="80.8679" height="70" fill="white" />
        </clipPath>
    </defs>
</svg>