<svg width="23" height="22" viewBox="0 0 23 22" fill="none" xmlns="http://www.w3.org/2000/svg">
<g id="ClockCountdown">
<path id="Vector" d="M20.7814 11.7734C20.6297 13.5369 19.9774 15.2204 18.9015 16.6258C17.8255 18.0312 16.3705 19.1001 14.7077 19.7067C13.0448 20.3132 11.2434 20.4323 9.51518 20.0498C7.78699 19.6674 6.20398 18.7993 4.9524 17.5477C3.70082 16.2961 2.83273 14.7131 2.45025 12.9849C2.06778 11.2567 2.18684 9.45525 2.79342 7.79242C3.40001 6.1296 4.46888 4.67461 5.87429 3.59863C7.2797 2.52265 8.96318 1.87043 10.7267 1.71873C11.0002 1.69593 11.2715 1.78272 11.481 1.96001C11.6906 2.13729 11.8211 2.39053 11.8439 2.66404C11.8667 2.93754 11.7799 3.2089 11.6026 3.41841C11.4253 3.62793 11.1721 3.75843 10.8986 3.78123C9.52644 3.8989 8.21649 4.40604 7.12285 5.24299C6.02921 6.07993 5.19739 7.21185 4.72527 8.50553C4.25314 9.79922 4.16037 11.2008 4.45786 12.5455C4.75535 13.8901 5.43073 15.1218 6.40452 16.0956C7.37831 17.0694 8.60998 17.7447 9.95461 18.0422C11.2992 18.3397 12.7009 18.2469 13.9946 17.7748C15.2882 17.3027 16.4202 16.4709 17.2571 15.3772C18.094 14.2836 18.6012 12.9736 18.7189 11.6015C18.7301 11.4661 18.768 11.3342 18.8302 11.2134C18.8925 11.0926 18.9779 10.9853 19.0817 10.8975C19.1854 10.8097 19.3054 10.7432 19.4349 10.7018C19.5643 10.6604 19.7006 10.6449 19.8361 10.6562C19.9715 10.6675 20.1034 10.7054 20.2242 10.7676C20.3449 10.8299 20.4523 10.9153 20.5401 11.019C20.6279 11.1228 20.6944 11.2428 20.7358 11.3722C20.7771 11.5017 20.7926 11.638 20.7814 11.7734ZM10.4689 6.53123V11C10.4689 11.2735 10.5775 11.5358 10.7709 11.7292C10.9643 11.9226 11.2266 12.0312 11.5001 12.0312H15.9689C16.2424 12.0312 16.5047 11.9226 16.6981 11.7292C16.8915 11.5358 17.0001 11.2735 17.0001 11C17.0001 10.7265 16.8915 10.4642 16.6981 10.2708C16.5047 10.0774 16.2424 9.96873 15.9689 9.96873H12.5314V6.53123C12.5314 6.25772 12.4227 5.99542 12.2293 5.80202C12.0359 5.60862 11.7736 5.49998 11.5001 5.49998C11.2266 5.49998 10.9643 5.60862 10.7709 5.80202C10.5775 5.99542 10.4689 6.25772 10.4689 6.53123ZM18.3751 8.24998C18.6471 8.24998 18.9129 8.16933 19.139 8.01825C19.3651 7.86716 19.5414 7.65241 19.6454 7.40117C19.7495 7.14992 19.7767 6.87345 19.7237 6.60673C19.6706 6.34 19.5397 6.095 19.3474 5.9027C19.1551 5.71041 18.9101 5.57945 18.6434 5.5264C18.3766 5.47334 18.1002 5.50057 17.8489 5.60464C17.5977 5.70871 17.3829 5.88495 17.2318 6.11107C17.0808 6.33718 17.0001 6.60303 17.0001 6.87498C17.0001 7.23965 17.145 7.58938 17.4028 7.84725C17.6607 8.10511 18.0104 8.24998 18.3751 8.24998ZM15.6251 5.49998C15.8971 5.49998 16.1629 5.41933 16.389 5.26825C16.6151 5.11716 16.7914 4.90241 16.8954 4.65117C16.9995 4.39992 17.0267 4.12345 16.9737 3.85673C16.9206 3.59 16.7897 3.345 16.5974 3.1527C16.4051 2.96041 16.1601 2.82945 15.8934 2.7764C15.6266 2.72334 15.3502 2.75057 15.0989 2.85464C14.8477 2.95871 14.6329 3.13495 14.4818 3.36107C14.3308 3.58718 14.2501 3.85303 14.2501 4.12498C14.2501 4.48965 14.395 4.83939 14.6528 5.09725C14.9107 5.35511 15.2604 5.49998 15.6251 5.49998Z" fill="white"/>
</g>
</svg>
