<svg width="21" height="21" viewBox="0 0 21 21" fill="none" xmlns="http://www.w3.org/2000/svg">
    <path
        d="M20.4731 18.6875C19.1878 16.4316 17.1807 14.6738 14.775 13.6972C15.9713 12.7999 16.855 11.549 17.3009 10.1216C17.7468 8.69424 17.7322 7.16274 17.2593 5.74407C16.7865 4.3254 15.8792 3.09148 14.666 2.21709C13.4529 1.34271 11.9954 0.872192 10.5 0.872192C9.00457 0.872192 7.54706 1.34271 6.33392 2.21709C5.12078 3.09148 4.2135 4.3254 3.74061 5.74407C3.26772 7.16274 3.25319 8.69424 3.69907 10.1216C4.14496 11.549 5.02865 12.7999 6.22498 13.6972C3.81928 14.6738 1.81221 16.4316 0.526855 18.6875C0.44721 18.8156 0.394127 18.9583 0.370762 19.1073C0.347396 19.2563 0.354226 19.4085 0.390844 19.5548C0.427462 19.7011 0.493122 19.8385 0.583919 19.9589C0.674716 20.0794 0.788798 20.1803 0.919381 20.2557C1.04996 20.3312 1.19438 20.3796 1.34405 20.3981C1.49373 20.4166 1.64559 20.4049 1.79062 20.3635C1.93566 20.3222 2.07089 20.2521 2.1883 20.1574C2.3057 20.0628 2.40288 19.9455 2.47404 19.8125C4.17279 16.8763 7.17279 15.125 10.5 15.125C13.8272 15.125 16.8272 16.8772 18.5259 19.8125C18.6802 20.0605 18.9248 20.2388 19.2081 20.3097C19.4914 20.3806 19.7912 20.3386 20.044 20.1925C20.2969 20.0464 20.4831 19.8077 20.5631 19.5268C20.6432 19.246 20.6109 18.945 20.4731 18.6875ZM5.62498 8C5.62498 7.03582 5.91089 6.09329 6.44657 5.2916C6.98224 4.48991 7.74361 3.86507 8.6344 3.49609C9.52519 3.12712 10.5054 3.03057 11.451 3.21868C12.3967 3.40678 13.2653 3.87108 13.9471 4.55286C14.6289 5.23464 15.0932 6.10328 15.2813 7.04894C15.4694 7.9946 15.3729 8.9748 15.0039 9.86559C14.6349 10.7564 14.0101 11.5177 13.2084 12.0534C12.4067 12.5891 11.4642 12.875 10.5 12.875C9.20751 12.8735 7.9684 12.3594 7.05448 11.4455C6.14056 10.5316 5.62647 9.29248 5.62498 8Z"
        fill="white" />
</svg>