<svg width="20" height="20" viewBox="0 0 20 20" fill="none" xmlns="http://www.w3.org/2000/svg">
    <path
        d="M10 0.25C8.07164 0.25 6.18657 0.821828 4.58319 1.89317C2.97982 2.96451 1.73013 4.48726 0.992179 6.26884C0.254225 8.05042 0.061142 10.0108 0.437348 11.9021C0.813554 13.7934 1.74215 15.5307 3.10571 16.8943C4.46928 18.2579 6.20656 19.1865 8.09787 19.5627C9.98919 19.9389 11.9496 19.7458 13.7312 19.0078C15.5127 18.2699 17.0355 17.0202 18.1068 15.4168C19.1782 13.8134 19.75 11.9284 19.75 10C19.7473 7.41498 18.7192 4.93661 16.8913 3.10872C15.0634 1.28084 12.585 0.25273 10 0.25ZM17.3472 6.25H14.0256C13.6429 4.74392 13.0001 3.31623 12.1263 2.03125C13.2427 2.33127 14.2839 2.86162 15.1831 3.58818C16.0823 4.31475 16.8194 5.22146 17.3472 6.25ZM10 1.76031C11.125 2.97906 11.9688 4.53062 12.4722 6.25H7.52782C8.03125 4.53062 8.875 2.98094 10 1.76031ZM7 10C7.00013 9.2461 7.06285 8.49352 7.1875 7.75H12.8125C13.0613 9.23969 13.0613 10.7603 12.8125 12.25H7.1875C7.06285 11.5065 7.00013 10.7539 7 10ZM7.52782 13.75H12.4722C11.9688 15.4694 11.125 17.0191 10 18.2397C8.875 17.0191 8.03125 15.4694 7.52782 13.75ZM12.1263 17.9688C13.0001 16.6838 13.6429 15.2561 14.0256 13.75H17.3472C16.8194 14.7785 16.0823 15.6852 15.1831 16.4118C14.2839 17.1384 13.2427 17.6687 12.1263 17.9688ZM14.3322 12.25C14.5559 10.7583 14.5559 9.24166 14.3322 7.75H17.9378C18.3541 9.22112 18.3541 10.7789 17.9378 12.25H14.3322Z"
        fill="white" />
</svg>