<svg width="26" height="20" viewBox="0 0 26 20" fill="none" xmlns="http://www.w3.org/2000/svg">
<path d="M6 1.5C6 0.947715 6.44772 0.5 7 0.5H25C25.5523 0.5 26 0.947715 26 1.5V2.5C26 3.05228 25.5523 3.5 25 3.5H7C6.44772 3.5 6 3.05228 6 2.5V1.5Z" fill="white"/>
<path d="M0 9.5C0 8.94772 0.447715 8.5 1 8.5H25C25.5523 8.5 26 8.94772 26 9.5V10.5C26 11.0523 25.5523 11.5 25 11.5H1C0.447716 11.5 0 11.0523 0 10.5V9.5Z" fill="white"/>
<path d="M11 17.5C11 16.9477 11.4477 16.5 12 16.5H25C25.5523 16.5 26 16.9477 26 17.5V18.5C26 19.0523 25.5523 19.5 25 19.5H12C11.4477 19.5 11 19.0523 11 18.5V17.5Z" fill="white"/>
</svg>
